<?xml version="1.0" standalone="no"?>
<!DOCTYPE svg PUBLIC "-//W3C//DTD SVG 20010904//EN"
 "http://www.w3.org/TR/2001/REC-SVG-20010904/DTD/svg10.dtd">
<svg version="1.0" xmlns="http://www.w3.org/2000/svg"
 width="202.000000pt" height="202.000000pt" viewBox="0 0 202.000000 202.000000"
 preserveAspectRatio="xMidYMid meet">
<metadata>
Created by potrace 1.14, written by Peter Selinger 2001-2017
</metadata>
<g transform="translate(0.000000,202.000000) scale(0.100000,-0.100000)"
fill="#000000" stroke="none">
<path d="M205 1569 c-16 -71 -203 -1104 -200 -1107 1 -1 24 -5 51 -8 45 -5 65
2 263 90 l213 94 48 -34 c170 -122 469 -152 666 -65 l46 21 90 -83 91 -82 159
165 c388 403 388 402 388 452 l0 45 -281 269 c-155 148 -285 270 -289 272 -4
2 -74 -66 -154 -151 l-147 -154 -52 14 c-107 27 -251 12 -360 -38 l-48 -23
-47 46 c-26 25 -110 104 -187 177 l-139 131 -52 0 c-50 0 -53 -1 -59 -31z
m1518 -547 c18 -20 16 -22 -97 -138 l-115 -119 15 49 c8 28 13 86 13 135 -1
82 -2 84 -9 33 -20 -133 -110 -244 -255 -314 -191 -91 -417 -91 -611 2 -137
66 -217 162 -249 301 l-14 64 3 -102 3 -101 -39 -18 c-21 -9 -40 -15 -42 -13
-2 2 15 100 38 217 l41 213 77 -78 c73 -74 77 -80 80 -128 l3 -50 18 34 19 33
44 -43 c24 -24 44 -46 44 -50 0 -4 -23 -15 -50 -24 -39 -13 -48 -20 -42 -31
16 -28 117 -104 160 -121 l43 -16 92 42 c51 22 97 41 102 41 6 0 31 -20 55
-45 24 -25 52 -45 62 -45 32 0 118 38 163 72 l44 33 -69 70 -70 70 53 59 53
59 28 -34 c16 -19 37 -51 46 -73 l18 -38 7 30 c7 34 -9 102 -33 145 l-17 29
58 54 59 55 126 -120 c70 -65 135 -128 145 -139z m-688 156 c-17 -18 -52 -57
-80 -86 l-49 -52 -69 67 -68 68 53 17 c33 11 88 17 147 17 l95 1 -29 -32z"/>
</g>
</svg>
